# xmcd
#
# Track frame offsets: 
#        150
#        9985
#        26730
#        40050
#        55535
#        68687
#        84435
#        99867
#        121567
#        137260
#        156420
#        175595
#
# Disc length: 2557 seconds
#
# Revision: 0
# Processed by: cddbd v1.5.1PL2 Copyright (c) Steve Scherf et al.
# Submitted via: ExactAudioCopy v0.95b3
#
DISCID=7c09fb0c
DTITLE=Lacy J. Dalton and Friends - Wild Horse Crossing
DYEAR=1999
DGENRE=Country
TTITLE0=Mustang
TTITLE1=Let 'em Run
TTITLE2=Horseplay
TTITLE3=The Escape
TTITLE4=Wild Pony Lullaby
TTITLE5=Mustang Ramble
TTITLE6=Run Mustang Run
TTITLE7=Palomino, My Amigo
TTITLE8=Flying Outlaw Mustang
TTITLE9=Mustang Moon
TTITLE10=Horse Comin'
TTITLE11=Outlaw
EXTD=
EXTT0=
EXTT1=
EXTT2=
EXTT3=
EXTT4=
EXTT5=
EXTT6=
EXTT7=
EXTT8=
EXTT9=
EXTT10=
EXTT11=
PLAYORDER=
